<svg xmlns="http://www.w3.org/2000/svg" xmlns:xlink="http://www.w3.org/1999/xlink" viewBox="0 0 63.49 60"><defs><style>.a{fill:#ffde5b;}.b{fill:url(#a);}.c{fill:url(#b);}.d{fill:url(#c);}.e{fill:url(#d);}.f{fill:url(#e);}.g{fill:#02823f;}.h{fill:#e52322;}</style><linearGradient id="a" x1="1727.65" y1="-421.21" x2="1726.81" y2="-354.06" gradientTransform="translate(-1259.68 1241.33) rotate(-30.66)" gradientUnits="userSpaceOnUse"><stop offset="0" stop-color="#dbdbdb"/><stop offset="0.29" stop-color="#fff"/><stop offset="0.69" stop-color="#fafafa"/><stop offset="1" stop-color="#f2f2f2"/></linearGradient><linearGradient id="b" x1="1723.49" y1="-412.98" x2="1722.79" y2="-357.56" gradientTransform="translate(-1259.68 1241.33) rotate(-30.66)" gradientUnits="userSpaceOnUse"><stop offset="0" stop-color="#dbdbdb"/><stop offset="0.29" stop-color="#fff"/><stop offset="0.44" stop-color="#fafafa"/><stop offset="0.6" stop-color="#ededed"/><stop offset="0.77" stop-color="#d7d7d7"/><stop offset="0.95" stop-color="#b8b8b8"/><stop offset="1" stop-color="#aeaeae"/></linearGradient><linearGradient id="c" x1="1718.87" y1="-415.32" x2="1712.48" y2="-346.52" gradientTransform="translate(-1259.68 1241.33) rotate(-30.66)" gradientUnits="userSpaceOnUse"><stop offset="0" stop-color="#006100"/><stop offset="0.29" stop-color="#008f00"/><stop offset="0.45" stop-color="#008b00"/><stop offset="0.62" stop-color="#007f00"/><stop offset="0.78" stop-color="#006b00"/><stop offset="0.95" stop-color="#004f00"/><stop offset="1" stop-color="#004500"/></linearGradient><linearGradient id="d" x1="1732.91" y1="-417.68" x2="1732.37" y2="-357.08" gradientTransform="translate(-1259.68 1241.33) rotate(-30.66)" gradientUnits="userSpaceOnUse"><stop offset="0" stop-color="#dc0000"/><stop offset="0.04" stop-color="#e60000"/><stop offset="0.12" stop-color="#f80000"/><stop offset="0.19" stop-color="red"/><stop offset="0.33" stop-color="#fb0000"/><stop offset="0.48" stop-color="#e00"/><stop offset="0.63" stop-color="#d90101"/><stop offset="0.79" stop-color="#bb0201"/><stop offset="0.94" stop-color="#960302"/><stop offset="1" stop-color="#860302"/></linearGradient><linearGradient id="e" x1="1737.82" y1="-452.05" x2="1736.94" y2="-355.37" gradientTransform="translate(-1259.68 1241.33) rotate(-30.66)" gradientUnits="userSpaceOnUse"><stop offset="0" stop-color="#dc0000"/><stop offset="0.04" stop-color="#e60000"/><stop offset="0.12" stop-color="#f80000"/><stop offset="0.19" stop-color="red"/><stop offset="0.42" stop-color="#fb0101"/><stop offset="0.66" stop-color="#ee0406"/><stop offset="0.91" stop-color="#d9080d"/><stop offset="1" stop-color="#d00a10"/></linearGradient></defs><circle class="a" cx="33.49" cy="30" r="30"/><path class="b" d="M31.17,43.16c.24.63.46,1.26.68,1.88.1.3.2.6.29.9H44.45c-.06-1.27-.15-2.58-.28-3.92a30.35,30.35,0,0,1-8.93,1.14Z"/><path class="c" d="M25.55,37.47c0-4.46,0-12.48,0-19.07A37.77,37.77,0,0,1,20,12V32.45C21.85,34.15,23.74,35.82,25.55,37.47Z"/><path class="d" d="M31.49,43,26,44.39a8.39,8.39,0,0,1-.47-3.07s0-1.57,0-4.09c-1.81-2-3.7-4-5.54-6,0,5.81,0,10.13,0,10.13,0,.35,0,1.33,0,1.51a3.91,3.91,0,0,1-2.15,3.36h15c-.12-.19-.24-.38-.38-.58C32.2,45.2,31.79,43.41,31.49,43Z"/><path class="e" d="M25.59,7.72a3.3,3.3,0,0,1,2.13-2.79H17.89A3.29,3.29,0,0,1,20,7.72V12a37.77,37.77,0,0,0,5.57,6.43C25.59,12.5,25.59,7.75,25.59,7.72Z"/><path class="f" d="M50.41,46l1.28-9.9V36a11.93,11.93,0,0,1-3.06,3.81,13.33,13.33,0,0,1-4.47,2.27c.13,1.34.22,2.65.28,3.92Z"/><path class="g" d="M37.62,58.65l-.51-.15c-.72-.18-1.47-.3-2.17-.54a30,30,0,0,0-3-1c-.72-.17-1.42-.36-2.12-.57A3.33,3.33,0,0,1,29,56.1c-.18-.11-.28-.23-.17-.43s.06-.16,0-.22a3.41,3.41,0,0,1-.77-.93c-.2-.26-.42-.52-.63-.78-.07-.07-.15-.18-.28-.12s-.06.17,0,.25a1.75,1.75,0,0,0,.35.66c.21.19-.16.52.22.62a.2.2,0,0,1,0,.08c-.11.16-.24.14-.38.06l-1.33-.71a.3.3,0,0,1-.17-.21l.15-.06c.1,0,.21-.08.22-.16s-.12-.11-.2-.14a2.47,2.47,0,0,0-.36-.11,6,6,0,0,1-2.74-1.19.46.46,0,0,1-.25-.36c0-.23-.13-.35-.34-.46a1.15,1.15,0,0,1-.62-.83,5,5,0,0,0-.47-1.26.64.64,0,0,1,.14-.8c.38-.36.38-.84.63-1.24,0,0,0-.09,0-.13a3.3,3.3,0,0,0-.13-.89,2.34,2.34,0,0,0-2.19-1.59c-.22,0-.56-.06-.61.13s.28.25.51.27a2.58,2.58,0,0,1,1.84,1.09s.07.12.05.15a.78.78,0,0,0,0,.74.23.23,0,0,1-.1.26c-.1.06-.19,0-.27,0a2.26,2.26,0,0,1-.69-.41c-.07-.07-.13-.16-.26-.09s0,.18,0,.26.23.43.36.65a.11.11,0,0,1,0,.15c-.06,0-.1,0-.13,0s-.09-.23-.28-.12-.09.22-.07.33a5.89,5.89,0,0,0,.52,1.18c.05.11.2.26,0,.36s-.21-.1-.29-.18a13.54,13.54,0,0,1-2.41-3.27A2,2,0,0,0,17.2,46a.26.26,0,0,0-.26-.07c-.07,0-.13.09-.11.16.07.33.06.71.31.95A11.5,11.5,0,0,1,18,48.27a.18.18,0,0,1-.07.31,18.89,18.89,0,0,1-1.28-1.7c-.4-.49-.71-1-1.06-1.55a.19.19,0,0,1,0-.25l.07,0,.11.21c.39-.43.32-1.74-.08-1.94-.14.2,0,.43-.13.67h-.05a3.41,3.41,0,0,1-.66-1,1.66,1.66,0,0,0-.19-.48,7.29,7.29,0,0,1-.64-1.06A6.35,6.35,0,0,0,13,39.63a17,17,0,0,0-3.28-2.78c-.1-.07-.23-.18-.35-.11s0,.23,0,.34,0,0,0,0c.59,1,1.15,2,1.65,3,.33.66.87,1.22,1.27,1.85.05.09.16.19,0,.3s-.24,0-.36,0c-.49-.12-1-.26-1.47-.37a7.91,7.91,0,0,1-2.48-1c-.31-.2-.63-.38-1-.56a.43.43,0,0,0-.45-.05,1,1,0,0,1-.63.06,9.17,9.17,0,0,1-1.76-.38,4.63,4.63,0,0,0-.84-.17.44.44,0,0,0-.43.14v0a2.42,2.42,0,0,0,.48.13,6.24,6.24,0,0,1,1.78.54A21.39,21.39,0,0,1,7.14,42c.09.05.06.11,0,.18-.2.28-.19.3.17.37.89.19,1.78.39,2.67.56a6.35,6.35,0,0,0,2,.24c.09,0,.22,0,.25-.09s-.12-.1-.2-.12l-1.35-.24a.4.4,0,0,1-.32-.32c0-.11.15-.18.26-.23a.48.48,0,0,1,.29,0,12.42,12.42,0,0,1,2,.61,1.39,1.39,0,0,1,.65.48,10.61,10.61,0,0,0,1,1.3,15.82,15.82,0,0,1,1.86,2.41,5,5,0,0,0,.72,1.08,13.07,13.07,0,0,1,.9,1,1.18,1.18,0,0,0,.3.29c.42.26.83.51,1.23.78.14.1.49.19.34.35s-.41,0-.57-.16a5.72,5.72,0,0,0-1.22-.73A2.24,2.24,0,0,1,17,49a6.91,6.91,0,0,0-1.2-1.45.56.56,0,0,1-.22-.35c0-.32-.25-.47-.59-.55l-.63-.17a25.44,25.44,0,0,1-2.91-.79,14.85,14.85,0,0,0-4.83-.84A3.52,3.52,0,0,0,5.31,45c-.16.05-.26.16-.25.27s.16.08.26.08a1.15,1.15,0,0,1,.46.11c.13.07.23.09.24-.1s.21-.28.43-.22a3.17,3.17,0,0,0,.76.1,16.85,16.85,0,0,1,2.66.36c.06,0,.17,0,.15.1a.18.18,0,0,1-.18.11,3.17,3.17,0,0,1-1,0,1.23,1.23,0,0,0-.69,0c.09.15.3.19.36.34a1.19,1.19,0,0,1-.74.05,2.59,2.59,0,0,0-1.11-.06c-.08,0-.19.07-.24,0s-.29-.08-.45-.07-.14,0-.15.1.08.07.14.09a12.58,12.58,0,0,0,3.48.31c.48,0,.7-.42,1.1-.55,0,0,0,0,0-.06,0,.23.09.25.32.2a1.79,1.79,0,0,1,.65,0l1.9.46c.11,0,.21.08.19.18s-.14.06-.22.08c-.67.15-.88.44-.6.93a4.85,4.85,0,0,0,3.43,2.38.69.69,0,0,0,.32,0c.12,0,.25-.08.28-.19s-.12-.14-.23-.17l-.91-.23c-.15,0-.38-.09-.36-.22,0-.34-.23-.36-.48-.43a2.49,2.49,0,0,1-1.61-1.43.2.2,0,0,1,.06-.28.34.34,0,0,1,.37,0c.11.09.14,0,.25,0s.3-.29.49-.09a30.78,30.78,0,0,1,2.24,2.34,1.77,1.77,0,0,0,.8.65,14.12,14.12,0,0,1,2,1,4.2,4.2,0,0,0,1.55.64.89.89,0,0,1,.61.35l-.15,0-.17,0a17.37,17.37,0,0,1-4.57-.33,2.69,2.69,0,0,0-.69-.11,5,5,0,0,1-2.27-.55c-.13-.06-.3-.15-.41,0s.1.2.19.27L16,53.07c.07,0,.15.13.25,0s0-.17-.06-.23l-.66-.53c-.09-.08-.21-.15-.12-.27s.2,0,.29,0a28,28,0,0,0,4.78.52c.27,0,.53,0,.8.06a.48.48,0,0,1,.34.13.61.61,0,0,0,.71.15c.28-.08.75.21.7.45s.08.28.25.36c1.09.5,2.19,1,3.24,1.58a11.57,11.57,0,0,0,2.56,1.13c.2,0,.44,0,.54.27s.4,0,.61.11a18.52,18.52,0,0,0,2.62.8.94.94,0,0,1,.66.5.55.55,0,0,0,.46.32l1.06.2c.8.15,1.61.27,2.44.35.12,0,.27,0,.33-.11S37.75,58.69,37.62,58.65ZM14.9,44c0,.09-.08.07-.15.06a.58.58,0,0,1-.35-.2c-.59-.91-1.42-1.68-2.05-2.56a17.32,17.32,0,0,1-1.73-2.88c0-.06,0-.12-.08-.17s-.06-.12,0-.18.13,0,.17,0a11.35,11.35,0,0,1,2.69,3c.29.56.68,1.07,1,1.63.14.25.13.55.44.74C15,43.58,14.9,43.85,14.9,44Zm-8.34-3c-.07,0-.2-.09-.12-.18s.19-.08.29,0a27,27,0,0,0,3.16,1.29,2.69,2.69,0,0,1-1.61-.08A6.52,6.52,0,0,1,6.56,41.08Z"/><path class="g" d="M30.32,58a1.75,1.75,0,0,1-1.13.33.19.19,0,0,1-.17,0c-.05,0,0-.09.06-.14a1.25,1.25,0,0,1,1-.56l0-.08-.54,0c-.07,0-.15,0-.18-.08s.08-.1.13-.14.28-.2.19-.29-.28,0-.4.09a.45.45,0,0,0-.13.1,1.37,1.37,0,0,1-1.17.49,12.18,12.18,0,0,1-2.34-.29,25.74,25.74,0,0,0-2.67-.54c-.11,0-.14,0-.14-.14s.08-.12.17-.14a2.49,2.49,0,0,1,.81-.09l3.37.26a3,3,0,0,1,.9.15.22.22,0,0,0,.28-.1.07.07,0,0,0-.07-.1c-.34,0-.54-.22-.85-.25-1.06-.11-2.12-.2-3.15-.38a5.77,5.77,0,0,0-2.41.44.76.76,0,0,0-.28.2c-.07.07-.18.14-.13.24s.16.08.25.08a3.36,3.36,0,0,1,1,.2,24.56,24.56,0,0,0,4.7,1.31c.1,0,.22,0,.28.11a.71.71,0,0,0,.64.24c.28,0,.56,0,.84,0a1.85,1.85,0,0,0,1.42-.65c.06-.08.17-.18.08-.27S30.39,58,30.32,58Z"/><path class="g" d="M14.36,39.21a.44.44,0,0,1-.29-.13,19.11,19.11,0,0,1-2.48-2.16.89.89,0,0,1-.24-.46c0-.26-.08-.53-.43-.65a1.71,1.71,0,0,0,.63,1.79,41.43,41.43,0,0,1,3.55,3,1.17,1.17,0,0,1,.37.79c0,.36,0,.71.09,1.07,0,.16.06.4.25.38s.19-.3.18-.45a16.4,16.4,0,0,1,.07-3.13,3.94,3.94,0,0,0-.22-1.83A8.66,8.66,0,0,1,15.35,36h0c.15,0,.22.1.31.19a5.18,5.18,0,0,1,1.54,3.22c0,.22,0,.49.31.59,0,0,0,.1,0,.16,0,.3,0,.61,0,.93a.48.48,0,0,1-.41.49l-.34.11c-.3.11-.36.22-.2.45a.68.68,0,0,1,.1.52,3.75,3.75,0,0,0-.1,1.2c0,.17,0,.39.25.37s.17-.26.17-.41q0-.62,0-1.23a.72.72,0,0,1,.41-.69A.83.83,0,0,0,18,41c-.15-.77-.18-1.56-.3-2.33a5.56,5.56,0,0,0-2.09-3.26c-.2-.18-.32-.13-.43.13h0c-.23,0-.22-.21-.28-.34a.24.24,0,0,0-.3-.14c-.18,0-.18.16-.13.27s.13.26.19.39a5.82,5.82,0,0,1,.88,2.32,5.11,5.11,0,0,1,0,1.7c0,.13,0,.32-.21.35s-.28-.14-.39-.24,0-.15,0-.23c.08-.38-.18-.67-.28-1a.44.44,0,0,0-.38-.26A2,2,0,0,1,14.36,39.21Z"/><path class="g" d="M32,55a4.63,4.63,0,0,0,1.57,2c.1.07.19.21.34.1s0-.22-.07-.3c-.39-.37-.68-.81-1-1.2a.67.67,0,0,1-.11-.93.19.19,0,0,0,0-.16c0-.2.11-.3.32-.34s.27-.14.22-.3-.12-.57-.2-.85a1.33,1.33,0,0,0-.57-.72.26.26,0,0,0-.32,0c-.12.09,0,.17,0,.24l.2.24c.06.08.16.15.08.26s-.2.1-.32.11c-.48,0-.48,0-.54.43,0,.08,0,.15,0,.26a1.84,1.84,0,0,1-1.28-1.69c0-.31-.18-.63.1-1a.25.25,0,0,1,.31-.11,4.3,4.3,0,0,1,1.5.6.19.19,0,0,0,.28,0c.1-.09,0-.15-.07-.2a2.61,2.61,0,0,0-1.63-.69c-.08,0-.17,0-.21,0s-.36.23-.54.33a.37.37,0,0,0-.25.34,2.81,2.81,0,0,1,0,.41,2.28,2.28,0,0,0,1.25,2.16A2.26,2.26,0,0,1,32,55Zm.26-1.54c.3,0,.54-.08.62.16a.21.21,0,0,1-.2.3c-.2,0-.47,0-.54-.17S32,53.45,32.23,53.43Z"/><path class="g" d="M11.31,35.93c.1,0,.17-.06.18-.12.12-.66-.52-1.07-.67-1.7a1,1,0,0,1,.22.16,7.15,7.15,0,0,1,1.18,1.58l.42.77a.24.24,0,0,0,.24.11c.13,0,.12-.12.12-.21a1,1,0,0,0-.12-.57,9.24,9.24,0,0,0-1.51-2,2.37,2.37,0,0,0-.81-.53.46.46,0,0,0-.47.11.21.21,0,0,0-.06.33C10.58,34.47,10.81,35.27,11.31,35.93Z"/><path class="g" d="M25.35,49.13a.48.48,0,0,0,.16.08c.09,0,.18.08.27,0s0-.15,0-.22c-.2-.24-.4-.49-.61-.73s-.13-.17-.05-.28.17-.06.27,0a.58.58,0,0,0,.57-.23,2.37,2.37,0,0,0,.32-1.57,2,2,0,0,0-.6,1.08c0,.17-.1.15-.22.06s-.3-.18-.44,0c0,.06,0,.15-.15.14s-.08-.12-.09-.18a3.78,3.78,0,0,0-.39-1.08.58.58,0,0,0-.57-.29,5.3,5.3,0,0,1,.67,1.85A3.94,3.94,0,0,0,25.35,49.13Z"/><path class="g" d="M21.66,53.81c.2-.09.33-.23.28-.41s-.27-.09-.41,0a4,4,0,0,1-2.1-.09,3.17,3.17,0,0,0-1.07-.12.4.4,0,0,0-.37.15c-.1.19-.25.19-.43.15l-.62-.13a.23.23,0,0,0-.24.12c0,.11.08.11.15.13a1.26,1.26,0,0,1,.57.27.55.55,0,0,0,.72.08,2.25,2.25,0,0,1,1.72-.13,4.16,4.16,0,0,0,1.56.08Z"/><path class="g" d="M26.47,50.05a.67.67,0,0,0,.08-.3c0-.21,0-.45-.19-.61a.83.83,0,0,0-.25.66,2.86,2.86,0,0,1-.33,1.38,7.85,7.85,0,0,1-.13-.94c0-.18,0-.36-.08-.54a.16.16,0,0,0-.15-.13c-.11,0-.09.1-.1.15a2.72,2.72,0,0,0-.05.49,5.2,5.2,0,0,0,1,2.85.27.27,0,0,0,.27.14,1.73,1.73,0,0,0-.16-.65l-.08-.14c-.37-.73.13-1.49.1-2.24C26.39,50.14,26.46,50.09,26.47,50.05Z"/><path class="g" d="M38.85,57.91c0-.09-.08-.21-.14-.33a.45.45,0,0,0-.53-.24.47.47,0,0,0-.44.36c0,.13-.09.25-.12.38s-.12.17,0,.24.21,0,.3,0a.81.81,0,0,1,.57-.08c.11,0,.21.15.34,0S38.85,58,38.85,57.91Z"/><path class="g" d="M25.25,45.8a.82.82,0,0,0,.26.1c.1,0,.22.06.29,0s0-.15-.09-.2a3.27,3.27,0,0,0-1.15-.53c-.39-.1-.57,0-.84.34A2.34,2.34,0,0,1,25.25,45.8Z"/><path class="g" d="M14.1,38.27c0-.16,0-.29,0-.41a.52.52,0,0,0-.44-.44c-.12,0-.28,0-.23.15A.89.89,0,0,0,14.1,38.27Z"/><path class="g" d="M19.58,46.62c.21,0,.19-.18.13-.38s-.06-.32-.26-.28-.1.28-.08.42S19.38,46.65,19.58,46.62Z"/><path class="g" d="M16.48,45.55c0,.05.1,0,.12,0s.13-.33-.1-.43A.36.36,0,0,0,16.48,45.55Z"/><path class="g" d="M26.66,53.58s.1,0,.09,0,0-.24-.21-.29C26.57,53.39,26.49,53.52,26.66,53.58Z"/><path class="h" d="M40.93,31.87A18.46,18.46,0,0,0,54.11,18.58c.92-4.3-7-8.59-11.79-.79-.16.25-1.39-6.6-7-5.86-6.59.74-5.58,6.5-3.76,8.13A55.06,55.06,0,0,1,40.93,31.87Z"/><path class="h" d="M8.45,30.68s8.12-1.66,10.34-10c.71-3.22-5.5-6.45-9.25-.6-.12.19-1.09-4.94-5.52-4.39-5.17.55-4.38,4.87-3,6.09A41.27,41.27,0,0,1,8.45,30.68Z"/></svg>